<?xml version="1.0" encoding="utf-8"?>
<!-- Generator: Adobe Illustrator 25.2.3, SVG Export Plug-In . SVG Version: 6.00 Build 0)  -->
<!DOCTYPE svg PUBLIC "-//W3C//DTD SVG 1.1//EN" "http://www.w3.org/Graphics/SVG/1.1/DTD/svg11.dtd" [
	<!ENTITY ns_extend "http://ns.adobe.com/Extensibility/1.0/">
	<!ENTITY ns_ai "http://ns.adobe.com/AdobeIllustrator/10.0/">
	<!ENTITY ns_graphs "http://ns.adobe.com/Graphs/1.0/">
	<!ENTITY ns_vars "http://ns.adobe.com/Variables/1.0/">
	<!ENTITY ns_imrep "http://ns.adobe.com/ImageReplacement/1.0/">
	<!ENTITY ns_sfw "http://ns.adobe.com/SaveForWeb/1.0/">
	<!ENTITY ns_custom "http://ns.adobe.com/GenericCustomNamespace/1.0/">
	<!ENTITY ns_adobe_xpath "http://ns.adobe.com/XPath/1.0/">
]>
<svg version="1.1" id="Layer_1" xmlns:x="&ns_extend;" xmlns:i="&ns_ai;" xmlns:graph="&ns_graphs;"
	 xmlns="http://www.w3.org/2000/svg" xmlns:xlink="http://www.w3.org/1999/xlink" x="0px" y="0px" viewBox="0 0 400 400"
	 style="enable-background:new 0 0 400 400;" xml:space="preserve">
<style type="text/css">
	.st0{fill:#EF3E23;}
	.st1{fill:#FFFFFF;}
	.st2{fill:none;stroke:#FFFFFF;stroke-width:40;stroke-miterlimit:10;}
</style>
<metadata>
	<sfw  xmlns="&ns_sfw;">
		<slices></slices>
		<sliceSourceBounds  bottomLeftOrigin="true" height="400" width="400" x="0" y="0"></sliceSourceBounds>
	</sfw>
</metadata>
<rect class="st0" width="400" height="400"/>
<g>
	<path class="st1" d="M334.6,293.4c-7.9,0-14.9,0-22.4,0c0-4.2,0-7.5,0-10.8c-3.8-0.1-7.6-0.2-11.4-0.3c-0.1-3.8-0.2-7.6-0.3-11.4
		c-3.2,0-6.5,0-10.7,0c-0.3-3.7-0.6-7.2-0.9-11.4c4.4-0.2,8-0.4,11.6-0.6c0-3.8,0-7.6,0-11.4c-3.6-0.2-7.2-0.4-11.1-0.6
		c0-7.8,0-14.9,0-22.2c4-0.6,7.6-1.1,11.1-1.7c0-8,0-15.1,0-22.3c-3.8-0.1-7.6-0.2-11.4-0.3c-0.2-2.7-0.4-5.3-0.6-8
		c-4.1-0.5-7.3-0.9-10.8-1.3c0-3.7,0-6.9,0-11c7.6,0,14.7,0,22.9,0c-0.3-4.5-0.5-8-0.8-12.4c-8,0-15.1,0-23,0c0-8-0.5-7.4-0.5-14.5
		c-4.1,0-5.9,0.7-9.9,0.7c0,7.7-0.9,6.4-0.9,14.4c-4.5-0.4-8-0.6-12.4-1c0-8.1,1.1-4.2,1.1-11.4c-4.3,0-4.2,2.1-7.6,2.1l-3.2-2.5
		c-0.2,3.7-1.5-3.6-1.7,0.5c-4.1,0.2-7.6,0.4-11.1,0.6c0,3.3,0,6.5,0,10.6c-3.8,0.6-7.4,1.1-11.4,1.7c0,3.5,0,6.7,0,10.3
		c3.6,0.4,6.8,0.7,10.7,1.1c0.2,3.8,0.4,7.4,0.6,11c3.2,0,6.5,0,10.5,0c0.4,2.7,0.7,5.2,1.2,8.5c-4.5,0.2-8.1,0.4-11.7,0.6
		c-0.2,3.6-0.4,7.2-0.6,11.7c-8,0-15.4,0-22.8,0c0,3.3,0,6.5,0,10.6c3.6,0.5,7.2,1,11.1,1.5c0,3.6,0,6.8,0,11.2c-0.2,0-0.4,0-0.6,0
		l1.3,23c3.2,0,6.5,0,10.4,0c1.3,4.7,1.3,9.3,1.2,14.1h11.6c-0.4-8.2,0.3-16.5-0.1-25.1c11.9,0,22.8,0,34.5,0c0,11,0,21.9,0,34.3
		c-9.8,0-19.1,0-28.9,0l0,0h-2.4c-2.1,0.1,2.4,0-2.1,0h-13.5v-0.1c-3.9,0.2-7.4,0.4-10.8,0.6c0,3.6,0,7.2,0,10.9
		c4.4,0.5,7.6,0.9,11.1,1.3c0.4,3.7,0.7,6.9,1,10.6c3.7,0,6.9,0,10.3,0c0.6-4,1.2-7.6,1.8-11.5c4,0.4,7.3,0.6,10.3,0.9
		c0.4,4.2,0.7,7.4,1,10.3c4.1,0,7.3,0,10.5,0c0.5-3.9,0.9-7.1,1.3-10.5c3.8,0,7,0,10.6,0c0.3,3.7,0.7,6.9,1,10.4
		c4,0.6,7.6,1.2,11.5,1.8c-0.4,4-0.6,7.3-1,11.3c-8,0-15.1,0-22,0c0,8,0,15.1,0,22.3c23.3,0,45.9,0,69.5,0c0-8.2,0.2-15.9,0-23.5
		C335.5,309.3,336.7,301.6,334.6,293.4z M241.5,235c-2.8,0.2-6,0.5-10.1,0.9c0-4.2,0-8.1,0-11.7c3.8,0,6.6,0,10.1,0
		C241.5,227.7,241.5,230.8,241.5,235z M254.1,180.8c3.5-0.2,7-0.5,11-0.7c0,4.1,0,7.3,0,11.1c-3.4,0-6.6,0-11,0
		C254.1,187.4,254.1,184.5,254.1,180.8z M264.6,235.3c-3.8,0-6.6,0-10.1,0c0-3.5,0-6.6,0-10.8c2.8-0.2,6-0.5,10.1-0.9
		C264.6,227.9,264.6,231.7,264.6,235.3z M254.2,211.2c0-3.8,0-6.6,0-10.1c3.5,0,6.7,0,10.8,0c0.2,2.8,0.5,6,0.9,10.1
		C261.6,211.2,257.8,211.2,254.2,211.2z M277.8,212.2c0-4.1,0-7.3,0-11.5c3.9,0,7.5,0,11.1,0c0,3.3,0,6.6,0,10.8
		C285.4,211.6,281.9,211.9,277.8,212.2z M289.5,294.1c0-4.1,0-7.3,0-11.5c3.9,0,7.5,0,11.1,0c0,3.3,0,6.6,0,10.8
		C297.1,293.6,293.6,293.8,289.5,294.1z M323.6,328.6c-7.3,0-14.4,0-22.7,0c0-3.8,0-6.6,0-10.5c3.3-0.3,6.5-0.6,10.6-1.1
		c0.5-3.3,1-6.9,1.6-10.9c3.6,0,6.8,0,10.5,0C323.6,313.8,323.6,320.9,323.6,328.6z"/>
	<path class="st1" d="M133.9,229c0.1,0,0.2,0,0.3,0c0-0.1,0-0.2,0-0.3L133.9,229z"/>
	<path class="st1" d="M134.2,229c0,3.8,0,7.6,0,11.3c3.3,0,6.6,0,10.7,0c0.6,3.9,1.1,7.5,1.6,11.4c7.1,0,13.9,0,21.6,0
		c0.5-3.1,1.2-6.7,1.9-10.7c7.2,0,14.4,0,21.8,0l-0.7-12C172,229,153.1,229,134.2,229z"/>
	<path class="st1" d="M134.2,240.7c0-0.1,0-0.2,0-0.3c-0.1,0-0.2,0-0.3,0L134.2,240.7z"/>
	<path class="st1" d="M283.1,263.7c0,0.1,0,0.2,0,0.4c0.1,0,0.2,0,0.3,0L283.1,263.7z"/>
	<path class="st1" d="M283.5,252c-0.1,0-0.2,0-0.3,0c0,0.1,0,0.2,0,0.3L283.5,252z"/>
	<path class="st1" d="M294.8,275.5c0,0.1,0,0.2,0,0.3c0.1,0,0.2,0,0.3,0L294.8,275.5z"/>
	<path class="st1" d="M283.1,193.5c0,0.1,0,0.2,0,0.4c0.1,0,0.2,0,0.4,0L283.1,193.5z"/>
	<path class="st1" d="M283.1,240.3c0,0.1,0,0.2,0,0.3c0.1,0,0.2,0,0.4,0L283.1,240.3z"/>
	<path class="st1" d="M178.1,310.9c0-0.1,0-0.2,0-0.3c-0.1,0-0.2,0-0.3,0L178.1,310.9z"/>
	<path class="st1" d="M122.9,334.1c4.1-0.3,7.6-0.6,12-0.9c0-4.7,0-9,0-13.1l-12,0.7C122.9,325.1,122.9,329.6,122.9,334.1z"/>
	<path class="st1" d="M201.2,310.9l0.3-0.3c-0.1,0-0.2,0-0.3,0C201.2,310.6,201.2,310.8,201.2,310.9z"/>
	<path class="st1" d="M189.5,275.5c0,0.1,0,0.2,0,0.3c0.1,0,0.2,0,0.3,0L189.5,275.5z"/>
	<path class="st1" d="M133.9,264.1c0.1,0,0.2,0,0.3,0c0-0.1,0-0.2,0-0.3L133.9,264.1z"/>
	<path class="st1" d="M189.5,297.8c0-7.9,0-15,0-22.1c-6.1,0-12.3,0-19.3,0c-0.6-3.7-1.2-7.3-1.9-11.7c-11.4,0-22.8,0-34.1,0
		c-0.2,3.6-0.3,7.3-0.5,11c-4.1,0.5-7.3,0.8-10.8,1.2c0,11.8,0,23.4,0,35.2l20.2-1.2c1-0.1,2.1-0.2,3.2-0.3c0-8,0-15.1,0-22
		c4.1,0,7.3,0,10.7,0c0.4,3.8,0.7,7,1.1,10.6c3.7,0,6.9,0,10.3,0c0.7-4,1.3-7.6,1.9-11.5c3.1,0.5,5.3,0.9,7.8,1.3
		c0,7.9,0,15.1,0,22.3c7.7,0,15.4,0,23.1,0c0-3.6,0-7.2,0-10.5C196.6,299.2,193.1,298.5,189.5,297.8z"/>
	<path class="st1" d="M171.5,137.6c-0.5-3.9-1-7.5-1.5-11.5c-3.1,0.3-5.3,0.5-7.2,0.7c0,8.1,0,15.1,0,22.2c10.7,0,20.7,0,30.9,0
		c0.4-3.8,0.8-7,1.2-11.1c7.5,0,14.6,0,22.2,0c0-4.1,0-7.3,0-10.9c-3.8-0.5-7.4-1.1-11.3-1.6c0-4.1,0-7.4,0-10.6
		c-3.6,0-7.2,0-10.9,0c-0.5,4.4-0.9,7.6-1.3,11.1c-3.7,0.4-6.9,0.7-10.2,1c-0.7,4-1.3,7.6-1.8,10.8
		C177.7,137.6,174.8,137.6,171.5,137.6z"/>
	<path class="st1" d="M110.5,205.2c0,0.1,0,0.2,0,0.4c0.1,0,0.2,0,0.4,0L110.5,205.2z"/>
	<path class="st1" d="M110.9,216.9c-0.1,0-0.2,0-0.4,0c0,0.1,0,0.2,0,0.4L110.9,216.9z"/>
	<path class="st1" d="M105.2,195.3c-0.2-4.5-0.4-8.2-0.6-11.7c-3.8,0-7.6,0-11.4,0c0,10.6,0,21.2,0,31.8c3.5,0.2,7.1,0.4,11.2,0.6
		c0.2,4.1,0.4,7.6,0.6,11.1c7.7,0,15.4,0,23.1,0c0-3.8,0-7.6,0-11.3c-3.2,0-6.5,0-10.6,0c-0.3-3.7-0.6-7.2-0.9-11.4
		c4.4-0.2,8-0.4,11.6-0.6c0-2.8,0-5.6,0-8.4C120.6,195.3,113.2,195.3,105.2,195.3z"/>
	<path class="st1" d="M146,114.5c-0.1,0-0.2,0-0.3,0c0,0.1,0,0.2,0,0.3L146,114.5z"/>
	<path class="st1" d="M134.2,126.2c-0.1,0-0.2,0-0.3,0c0,0.1,0,0.2,0,0.3L134.2,126.2z"/>
	<path class="st1" d="M122,104.2c1.3,7.8-0.8,15.1,1.5,22c3.9,0,7.2,0,10.5,0c0.2-3.5,0.4-7.1,0.6-11.2c4.1-0.2,7.6-0.4,11.2-0.6
		c0-7.5,0-15,0-22.7c4.5-0.4,7.7-0.7,11.8-1.1c-0.3-4-0.6-7.5-0.9-11c-12-0.1-22.9-0.2-33.4,0c0,4.7,0,7.9,0,10.9
		c3.9,0.5,7.1,0.9,10.4,1.2c0,3.9,0,7,0,10.3C129.5,102.9,126,103.5,122,104.2z"/>
	<path class="st1" d="M128.3,194.9c3.8,0,7.6,0,11.4,0c0-7.5,0-14.9,0-23.2c-12.3,0.4-23.5-0.8-34.8,0.9c0,4.1,0,7.4,0,10.6
		c7.4,0,14.8,0,22.8,0C128,187.8,128.2,191.4,128.3,194.9z"/>
	<path class="st1" d="M157.7,173c-0.1,0-0.2,0-0.3,0c0,0.1,0,0.2,0,0.3L157.7,173z"/>
	<path class="st1" d="M145.6,150c0.1,0,0.2,0,0.3,0c0-0.1,0-0.2,0-0.3L145.6,150z"/>
	<path class="st1" d="M157.3,149.6c0,0.1,0,0.2,0,0.4c0.1,0,0.2,0,0.4,0L157.3,149.6z"/>
	<path class="st1" d="M145.9,150c0,7.4,0,14.8,0,23.1c4.3,0,7.8,0,11.4,0c0-7.7,0-15.4,0-23.1C153.5,150,149.7,150,145.9,150z"/>
	<path class="st1" d="M172.9,204c0-3.9,0-7.2,0-10.4c-6.5,0-13,0-19.8,0c0,4.2,0,7.3,0,11.4C160,204.7,166.5,206.2,172.9,204z"/>
	<path class="st1" d="M304.8,134.7c-0.1-2.5-0.2-4.3-0.4-6.8c-7.4,0-13.4,0-19.5,0c0,2.9,0,5,0,8
		C291.9,135.4,298.4,137.2,304.8,134.7z"/>
	<path class="st1" d="M64.1,161.7c0,3.5,0,7.1,0,11.4c4.3,0,7.8,0,11.3,0c0-3.5,0-7,0-11.4C71.1,161.7,67.6,161.7,64.1,161.7z"/>
	<path class="st1" d="M189.6,172.7c-0.3-4.1-0.5-7.5-0.8-11c-4.2,0-7.4,0-10.7,0c0,3.6,0,7.2,0,11
		C182.4,172.7,185.5,172.7,189.6,172.7z"/>
	<path class="st1" d="M177.8,161.7c0.1,0,0.2,0,0.4,0c0-0.1,0-0.2,0-0.4L177.8,161.7z"/>
	<path class="st1" d="M250.7,90.4c3.9-0.5,7.5-1,11.5-1.5c-0.3-3.1-0.5-5.3-0.7-7.2c-8.1,0-15.1,0-22.2,0c0,10.7,0,20.7,0,30.9
		c3.8,0.4,7,0.8,11.1,1.2c0,7.5,0,14.6,0,22.2c4.1,0,7.3,0,10.9,0c0.5-3.8,1.1-7.4,1.6-11.3c4.1,0,7.4,0,10.6,0c0-3.6,0-7.2,0-10.9
		c-4.4-0.5-7.6-0.9-11.1-1.3c-0.4-3.7-0.7-6.9-1-10.2c-4-0.7-7.6-1.3-10.8-1.8C250.7,96.6,250.7,93.7,250.7,90.4z"/>
</g>
<rect x="45.1" y="48" class="st2" width="309.8" height="309.8"/>
</svg>
