<?xml version="1.0" encoding="utf-8"?>
<!-- Generator: Adobe Illustrator 25.2.3, SVG Export Plug-In . SVG Version: 6.00 Build 0)  -->
<!DOCTYPE svg PUBLIC "-//W3C//DTD SVG 1.1//EN" "http://www.w3.org/Graphics/SVG/1.1/DTD/svg11.dtd" [
	<!ENTITY ns_extend "http://ns.adobe.com/Extensibility/1.0/">
	<!ENTITY ns_ai "http://ns.adobe.com/AdobeIllustrator/10.0/">
	<!ENTITY ns_graphs "http://ns.adobe.com/Graphs/1.0/">
	<!ENTITY ns_vars "http://ns.adobe.com/Variables/1.0/">
	<!ENTITY ns_imrep "http://ns.adobe.com/ImageReplacement/1.0/">
	<!ENTITY ns_sfw "http://ns.adobe.com/SaveForWeb/1.0/">
	<!ENTITY ns_custom "http://ns.adobe.com/GenericCustomNamespace/1.0/">
	<!ENTITY ns_adobe_xpath "http://ns.adobe.com/XPath/1.0/">
]>
<svg version="1.1" id="Layer_1" xmlns:x="&ns_extend;" xmlns:i="&ns_ai;" xmlns:graph="&ns_graphs;"
	 xmlns="http://www.w3.org/2000/svg" xmlns:xlink="http://www.w3.org/1999/xlink" x="0px" y="0px" viewBox="0 0 400 400"
	 style="enable-background:new 0 0 400 400;" xml:space="preserve">
<style type="text/css">
	.st0{fill:#EF3E23;}
	.st1{fill:#FFFFFF;}
	.st2{fill:none;stroke:#FFFFFF;stroke-width:40;stroke-miterlimit:10;}
</style>
<metadata>
	<sfw  xmlns="&ns_sfw;">
		<slices></slices>
		<sliceSourceBounds  bottomLeftOrigin="true" height="512" width="2487.1" x="-956.4" y="-490.7"></sliceSourceBounds>
	</sfw>
</metadata>
<rect x="0" y="0" class="st0" width="400" height="400"/>
<g>
	<path class="st1" d="M-799.1,146.7c0.1,0,0.2,0,0.4,0c0-0.1,0-0.2,0-0.4L-799.1,146.7z"/>
	<path class="st1" d="M-671.4,227.7c-7.9,0-14.9,0-22.4,0c0-4.2,0-7.5,0-10.8c-3.8-0.1-7.6-0.2-11.4-0.3c-0.1-3.8-0.2-7.6-0.3-11.4
		c-3.2,0-6.5,0-10.7,0c-0.3-3.7-0.6-7.2-0.9-11.4c4.4-0.2,8-0.4,11.6-0.6c0-3.8,0-7.6,0-11.4c-3.6-0.2-7.2-0.4-11.1-0.6
		c0-7.8,0-14.9,0-22.2c4-0.6,7.6-1.1,11.1-1.7c0-8,0-15.1,0-22.3c-3.8-0.1-7.6-0.2-11.4-0.3c-0.2-2.7-0.4-5.3-0.6-8
		c-4.1-0.5-7.3-0.9-10.8-1.3c0-3.7,0-6.9,0-11c7.6,0,14.7,0,22.9,0c-0.3-4.5-0.5-8-0.8-12.4c-8,0-15.1,0-23,0c0-8-0.5-7.4-0.5-14.5
		c-4.1,0-5.9,0.7-9.9,0.7c0,7.7-0.9,6.4-0.9,14.4c-4.5-0.4-8-0.6-12.4-1c0-8.1,1.1-4.2,1.1-11.4c-4.3,0-4.2,2.1-7.6,2.1l-3.2-2.5
		c-0.2,3.7-1.5-3.6-1.7,0.5c-4.1,0.2-7.6,0.4-11.1,0.6c0,3.3,0,6.5,0,10.6c-3.8,0.6-7.4,1.1-11.4,1.7c0,3.5,0,6.7,0,10.3
		c3.6,0.4,6.8,0.7,10.7,1.1c0.2,3.8,0.4,7.4,0.6,11c3.2,0,6.5,0,10.5,0c0.4,2.7,0.7,5.2,1.2,8.5c-4.5,0.2-8.1,0.4-11.7,0.6
		c-0.2,3.6-0.4,7.2-0.6,11.7c-8,0-15.4,0-22.8,0c0,3.3,0,6.5,0,10.6c3.6,0.5,7.2,1,11.1,1.5c0,3.6,0,6.8,0,11.2c-0.2,0-0.4,0-0.6,0
		l1.3,23c3.2,0,6.5,0,10.4,0c1.3,4.7,1.3,9.3,1.2,14.1h11.6c-0.4-8.2,0.3-16.5-0.1-25.1c11.9,0,22.8,0,34.5,0c0,11,0,21.9,0,34.3
		c-9.8,0-19.1,0-28.9,0l0,0l-2.4,0c-2.1,0.1,2.4,0-2.1,0h-13.5l0-0.1c-3.9,0.2-7.4,0.4-10.8,0.6c0,3.6,0,7.2,0,10.9
		c4.4,0.5,7.6,0.9,11.1,1.3c0.4,3.7,0.7,6.9,1,10.6c3.7,0,6.9,0,10.3,0c0.6-4,1.2-7.6,1.8-11.5c4,0.4,7.3,0.6,10.3,0.9
		c0.4,4.2,0.7,7.4,1,10.3c4.1,0,7.3,0,10.5,0c0.5-3.9,0.9-7.1,1.3-10.5c3.8,0,7,0,10.6,0c0.3,3.7,0.7,6.9,1,10.4
		c4,0.6,7.6,1.2,11.5,1.8c-0.4,4-0.6,7.3-1,11.3c-8,0-15.1,0-22,0c0,8,0,15.1,0,22.3c23.3,0,45.9,0,69.5,0c0-8.2,0.2-15.9,0-23.5
		C-670.5,243.6-669.3,235.9-671.4,227.7z M-764.5,169.3c-2.8,0.2-6,0.5-10.1,0.9c0-4.2,0-8.1,0-11.7c3.8,0,6.6,0,10.1,0
		C-764.5,162-764.5,165.1-764.5,169.3z M-751.9,115.1c3.5-0.2,7-0.5,11-0.7c0,4.1,0,7.3,0,11.1c-3.4,0-6.6,0-11,0
		C-751.9,121.7-751.9,118.8-751.9,115.1z M-741.4,169.6c-3.8,0-6.6,0-10.1,0c0-3.5,0-6.6,0-10.8c2.8-0.2,6-0.5,10.1-0.9
		C-741.4,162.2-741.4,166-741.4,169.6z M-751.8,145.5c0-3.8,0-6.6,0-10.1c3.5,0,6.7,0,10.8,0c0.2,2.8,0.5,6,0.9,10.1
		C-744.4,145.5-748.2,145.5-751.8,145.5z M-728.2,146.5c0-4.1,0-7.3,0-11.5c3.9,0,7.5,0,11.1,0c0,3.3,0,6.6,0,10.8
		C-720.6,145.9-724.1,146.2-728.2,146.5z M-716.5,228.4c0-4.1,0-7.3,0-11.5c3.9,0,7.5,0,11.1,0c0,3.3,0,6.6,0,10.8
		C-708.9,227.9-712.4,228.1-716.5,228.4z M-682.4,262.9c-7.3,0-14.4,0-22.7,0c0-3.8,0-6.6,0-10.5c3.3-0.3,6.5-0.6,10.6-1.1
		c0.5-3.3,1-6.9,1.6-10.9c3.6,0,6.8,0,10.5,0C-682.4,248.1-682.4,255.2-682.4,262.9z"/>
	<path class="st1" d="M-787.4,216.9c0.1,0,0.2,0,0.3,0c0-0.1,0-0.2,0-0.3L-787.4,216.9z"/>
	<path class="st1" d="M-854.7,170.1c0.1,0,0.2,0,0.3,0c0-0.1,0-0.2,0-0.3L-854.7,170.1z"/>
	<path class="st1" d="M-854.4,170.1c0,3.8,0,7.6,0,11.3c3.3,0,6.6,0,10.7,0c0.6,3.9,1.1,7.5,1.6,11.4c7.1,0,13.9,0,21.6,0
		c0.5-3.1,1.2-6.7,1.9-10.7c7.2,0,14.4,0,21.8,0l-0.7-12C-816.6,170.1-835.5,170.1-854.4,170.1z"/>
	<path class="st1" d="M-854.4,181.8c0-0.1,0-0.2,0-0.3c-0.1,0-0.2,0-0.3,0L-854.4,181.8z"/>
	<path class="st1" d="M-775.7,135c0.1,0,0.2,0,0.3,0c0-0.1,0-0.2,0-0.3L-775.7,135z"/>
	<path class="st1" d="M-705.5,204.8c0,0.1,0,0.2,0,0.4c0.1,0,0.2,0,0.3,0L-705.5,204.8z"/>
	<path class="st1" d="M-705.1,193.1c-0.1,0-0.2,0-0.3,0c0,0.1,0,0.2,0,0.3L-705.1,193.1z"/>
	<path class="st1" d="M-693.8,216.6c0,0.1,0,0.2,0,0.3c0.1,0,0.2,0,0.3,0L-693.8,216.6z"/>
	<path class="st1" d="M-775.3,126.2c0-0.1,0-0.2,0-0.4c-0.1,0-0.2,0-0.3,0L-775.3,126.2z"/>
	<path class="st1" d="M-775.7,91.1c0.1,0,0.2,0,0.4,0c0-0.1,0-0.2,0-0.3L-775.7,91.1z"/>
	<path class="st1" d="M-705.5,134.6c0,0.1,0,0.2,0,0.4c0.1,0,0.2,0,0.4,0L-705.5,134.6z"/>
	<path class="st1" d="M-705.5,181.4c0,0.1,0,0.2,0,0.3c0.1,0,0.2,0,0.4,0L-705.5,181.4z"/>
	<path class="st1" d="M-670.8-11c-27.1,0-53.7,0-80.7,0c0,26,0,51.6,0,77.8c27.7,0,54.2,0,80.7,0C-670.8,40.5-670.8,14.9-670.8-11z
		 M-681.9,25.8c0.1,9.6,0,19.3,0,29.4c-19.6,0-38.4,0-57.9,0c0-18.8,0-37.6,0-57.7c19.1,0,37.5,0,57.3,0
		C-681.2,6.7-682,16.3-681.9,25.8z"/>
	<path class="st1" d="M-956.3,274.3c23.7,2,68.2,1.5,78.1-0.9c0-26.2,0-52.4,0-79.3c-26.9,0-52.5,0-78.1,0
		C-956.3,221.2-956.3,247.8-956.3,274.3z M-947.5,205.3c19.1,0,37.5,0,57.3,0c1.3,9.2,0.4,18.8,0.6,28.3c0.1,9.6,0,19.3,0,29.4
		c-19.6,0-38.4,0-57.9,0C-947.5,244.2-947.5,225.4-947.5,205.3z"/>
	<path class="st1" d="M-878.4-10.9c-26,0-51.6,0-77.8,0c0,26.7,0,52.3,0,77.8c26.3,0,51.9,0,77.8,0
		C-878.4,40.7-878.4,15.2-878.4-10.9z M-891.5,55.5c-18.5,0-36.9,0-56,0c0-19.1,0-37.8,0-57.6c18.4-1.4,37.2-0.2,55.9-0.7
		C-888.8,8.4-888.8,45-891.5,55.5z"/>
	<path class="st1" d="M-810.5,252c0-0.1,0-0.2,0-0.3c-0.1,0-0.2,0-0.3,0L-810.5,252z"/>
	<path class="st1" d="M-865.7,275.2c4.1-0.3,7.6-0.6,12-0.9c0-4.7,0-9,0-13.1l-12,0.7C-865.7,266.2-865.7,270.7-865.7,275.2z"/>
	<path class="st1" d="M-787.4,252l0.3-0.3c-0.1,0-0.2,0-0.3,0C-787.4,251.7-787.4,251.9-787.4,252z"/>
	<path class="st1" d="M-799.1,216.6c0,0.1,0,0.2,0,0.3c0.1,0,0.2,0,0.3,0L-799.1,216.6z"/>
	<path class="st1" d="M-854.7,205.2c0.1,0,0.2,0,0.3,0c0-0.1,0-0.2,0-0.3L-854.7,205.2z"/>
	<path class="st1" d="M-799.1,238.9c0-7.9,0-15,0-22.1c-6.1,0-12.3,0-19.3,0c-0.6-3.7-1.2-7.3-1.9-11.7c-11.4,0-22.8,0-34.1,0
		c-0.2,3.6-0.3,7.3-0.5,11c-4.1,0.5-7.3,0.8-10.8,1.2c0,11.8,0,23.4,0,35.2l20.2-1.2c1-0.1,2.1-0.2,3.2-0.3c0-8,0-15.1,0-22
		c4.1,0,7.3,0,10.7,0c0.4,3.8,0.7,7,1.1,10.6c3.7,0,6.9,0,10.3,0c0.7-4,1.3-7.6,1.9-11.5c3.1,0.5,5.3,0.9,7.8,1.3
		c0,7.9,0,15.1,0,22.3c7.7,0,15.4,0,23.1,0c0-3.6,0-7.2,0-10.5C-792,240.3-795.5,239.6-799.1,238.9z"/>
	<path class="st1" d="M-809.9,20.3c-0.5-3.9-1-7.5-1.5-11.5c-3.1,0.3-5.3,0.5-7.2,0.7c0,8.1,0,15.1,0,22.2c10.7,0,20.7,0,30.9,0
		c0.4-3.8,0.8-7,1.2-11.1c7.5,0,14.6,0,22.2,0c0-4.1,0-7.3,0-10.9c-3.8-0.5-7.4-1.1-11.3-1.6c0-4.1,0-7.4,0-10.6
		c-3.6,0-7.2,0-10.9,0c-0.5,4.4-0.9,7.6-1.3,11.1c-3.7,0.4-6.9,0.7-10.2,1c-0.7,4-1.3,7.6-1.8,10.8
		C-803.7,20.3-806.6,20.3-809.9,20.3z"/>
	<path class="st1" d="M-775.7-2.9c0,0.1,0,0.2,0,0.4c0.1,0,0.2,0,0.4,0L-775.7-2.9z"/>
	<path class="st1" d="M-912.9,146.6c0-0.1,0-0.2,0-0.3c-0.1,0-0.2,0-0.3,0L-912.9,146.6z"/>
	<path class="st1" d="M-901.1,158.4c0-0.1,0-0.2,0-0.4c-0.1,0-0.2,0-0.3,0L-901.1,158.4z"/>
	<path class="st1" d="M-878.1,146.3c0,0.1,0,0.2,0,0.4c0.1,0,0.2,0,0.4,0L-878.1,146.3z"/>
	<path class="st1" d="M-878.1,126.2c0.1,0,0.2,0,0.4,0c0-0.1,0-0.2,0-0.4c-0.1,0-0.2,0-0.3,0C-878.1,125.9-878.1,126.1-878.1,126.2z
		"/>
	<path class="st1" d="M-877.7,158c-0.1,0-0.2,0-0.4,0c0,0.1,0,0.2,0,0.4L-877.7,158z"/>
	<path class="st1" d="M-877.7,134.6c-0.1,0-0.2,0-0.4,0c0,0.1,0,0.2,0,0.3L-877.7,134.6z"/>
	<path class="st1" d="M-900.9,126.2c-0.2-4.5-0.4-8.2-0.6-11.7c-3.8,0-7.6,0-11.4,0c0,10.6,0,21.2,0,31.8c3.5,0.2,7.1,0.4,11.2,0.6
		c0.2,4.1,0.4,7.6,0.6,11.1c7.7,0,15.4,0,23.1,0c0-3.8,0-7.6,0-11.3c-3.2,0-6.5,0-10.6,0c-0.3-3.7-0.6-7.2-0.9-11.4
		c4.4-0.2,8-0.4,11.6-0.6c0-2.8,0-5.6,0-8.4C-885.5,126.2-892.9,126.2-900.9,126.2z"/>
	<path class="st1" d="M-842.6,55.6c-0.1,0-0.2,0-0.3,0c0,0.1,0,0.2,0,0.3L-842.6,55.6z"/>
	<path class="st1" d="M-854.4,67.3c-0.1,0-0.2,0-0.3,0c0,0.1,0,0.2,0,0.3L-854.4,67.3z"/>
	<path class="st1" d="M-866.6,45.3c1.3,7.8-0.8,15.1,1.5,22c3.9,0,7.2,0,10.5,0c0.2-3.5,0.4-7.1,0.6-11.2c4.1-0.2,7.6-0.4,11.2-0.6
		c0-7.5,0-15,0-22.7c4.5-0.4,7.7-0.7,11.8-1.1c-0.3-4-0.6-7.5-0.9-11c-12-0.1-22.9-0.2-33.4,0c0,4.7,0,7.9,0,10.9
		c3.9,0.5,7.1,0.9,10.4,1.2c0,3.9,0,7,0,10.3C-859.1,44-862.6,44.6-866.6,45.3z"/>
	<path class="st1" d="M-877.8,125.8c3.8,0,7.6,0,11.4,0c0-7.5,0-14.9,0-23.2c-12.3,0.4-23.5-0.8-34.8,0.9c0,4.1,0,7.4,0,10.6
		c7.4,0,14.8,0,22.8,0C-878.1,118.7-877.9,122.3-877.8,125.8z"/>
	<path class="st1" d="M-866,125.8c-0.1,0-0.2,0-0.3,0c0,0.1,0,0.2,0,0.3L-866,125.8z"/>
	<path class="st1" d="M-901.2,114.1c-0.1,0-0.2,0-0.3,0c0,0.1,0,0.2,0,0.3c0.1,0,0.2,0,0.3,0C-901.2,114.4-901.2,114.2-901.2,114.1z
		"/>
	<path class="st1" d="M-830.9,114.1c-0.1,0-0.2,0-0.3,0c0,0.1,0,0.2,0,0.3L-830.9,114.1z"/>
	<path class="st1" d="M-843,91.1c0.1,0,0.2,0,0.3,0c0-0.1,0-0.2,0-0.3L-843,91.1z"/>
	<path class="st1" d="M-831.3,90.7c0,0.1,0,0.2,0,0.4c0.1,0,0.2,0,0.4,0L-831.3,90.7z"/>
	<path class="st1" d="M-842.7,91.1c0,7.4,0,14.8,0,23.1c4.3,0,7.8,0,11.4,0c0-7.7,0-15.4,0-23.1C-835.1,91.1-838.9,91.1-842.7,91.1z
		"/>
	<path class="st1" d="M-936.6,102.4c0,0.1,0,0.2,0,0.4c0.1,0,0.2,0,0.4,0L-936.6,102.4z"/>
	<path class="st1" d="M-936.6,113.2c0-3.9,0-7.2,0-10.4c-6.5,0-13,0-19.8,0c0,4.2,0,7.3,0,11.4C-949.5,113.9-943,115.4-936.6,113.2z
		"/>
	<path class="st1" d="M-798.9-4c-0.1-2.5-0.2-4.3-0.4-6.8c-7.4,0-13.4,0-19.5,0c0,2.9,0,5,0,8C-811.8-3.3-805.3-1.5-798.9-4z"/>
	<path class="st1" d="M-924.5,102.8c0,3.5,0,7.1,0,11.4c4.3,0,7.8,0,11.3,0c0-3.5,0-7,0-11.4C-917.5,102.8-921,102.8-924.5,102.8z"
		/>
	<path class="st1" d="M-924.9,102.8c0.1,0,0.2,0,0.3,0c0-0.1,0-0.2,0-0.3L-924.9,102.8z"/>
	<path class="st1" d="M-913.2,114.1c0,0.1,0,0.2,0,0.4c0.1,0,0.2,0,0.4,0c0-0.1,0-0.2,0-0.4C-913,114.1-913.1,114.1-913.2,114.1z"/>
	<path class="st1" d="M-799,113.8c-0.3-4.1-0.5-7.5-0.8-11c-4.2,0-7.4,0-10.7,0c0,3.6,0,7.2,0,11
		C-806.2,113.8-803.1,113.8-799,113.8z"/>
	<path class="st1" d="M-810.8,102.8c0.1,0,0.2,0,0.4,0c0-0.1,0-0.2,0-0.4L-810.8,102.8z"/>
	<path class="st1" d="M-694.5,9.3c-11.5,0-22.1,0-33.5,0c0,12.2,0,23.2,0,34.3c11.6,0,22.5,0,34.4,0C-694,31.7-692.7,20.4-694.5,9.3
		z"/>
	<path class="st1" d="M-902.3,217c-11.5,0-22.1,0-33.4,0c0,12.3,0,23.2,0,34.2c11.6,0,22.5,0,34.4,0
		C-901.8,239.4-900.4,228.1-902.3,217z"/>
	<path class="st1" d="M-935.7,9.1c0,12.4,0,23.4,0,34.4c11.6,0,22.6,0,33.9,0c0-11.5,0-22.4,0-34.5C-914.2,9.1-925.2,8.8-935.7,9.1z
		"/>
</g>
<g>
	<path class="st1" d="M-855.9,420.3h-40.6l0.7-6.4h-6.6l2.2-20.5h6.6l0.7-6.8h6.6l0.7-6.8h27.3l-0.7,6.8h6.8L-855.9,420.3z
		 M-867.9,406.7l2.1-20.2h-13.7l-0.7,6.8h-6.4l-2.1,20.1h13.7l0.7-6.7H-867.9z"/>
	<path class="st1" d="M-801,399.9h-6.6l-0.7,6.8h-6.8l-0.7,6.6h13.4l-0.7,6.8h-20.1l0.7-6.5h-6.8l0.8-7h-6.5l-1.5,13.5h-13.7
		l4.3-40.6h40.6l-0.7,6.5h6.6L-801,399.9z M-814.6,399.9l1.4-13.4h-20.1l-1.4,13.4H-814.6z"/>
	<path class="st1" d="M-719.2,399.8h-6.6l-0.7,6.9h-6.6l-0.7,6.8h-20.3l-0.7,6.8h-13.7l4.3-40.6h40.6l-0.7,6.4h6.6L-719.2,399.8z
		 M-732.7,399.8l1.4-13.3h-20.1l-2.1,20.1h13.7l0.7-6.9H-732.7z"/>
	<path class="st1" d="M-690.9,420.3h-26.9l0.7-6.8h6.6l2.9-26.9h-6.7l0.7-6.8h26.9l-0.7,6.8h-6.6l-2.9,26.9h6.6L-690.9,420.3z"/>
	<path class="st1" d="M-635.8,393l-6.7,0.5l-0.6,6.4h-6.6l-0.7,6.8h6.6l-0.7,6.7h6.6l-0.7,6.8h-13.7l0.7-6.4h-6.6l0.8-6.8h-6.7
		l-0.7,6.8h-6.7l-0.7,6.4h-13.6l0.7-6.8h6.6l0.7-6.7h6.8l0.7-6.6h-6.8l0.6-6.6h-6.6l1.5-13.8h13.5l-1.4,13.3h6.7l-0.7,6.8h6.7
		l0.7-6.8h6.6l1.4-13.3h13.7L-635.8,393z"/>
	<path class="st1" d="M-586.4,420.3h-47.3l4.3-40.6h47.3l-0.7,6.6h-33.7l-1.4,13.4h26.9l-0.7,7h-27l-0.7,6.7h33.7L-586.4,420.3z"/>
	<path class="st1" d="M-543.6,420.3h-40.5l4.3-40.6h13.3l-3.6,33.6h27.1L-543.6,420.3z"/>
</g>
<image style="overflow:visible;" width="1024" height="512" xlink:href="../../../../website14-1024x512.jpg"  transform="matrix(1 0 0 1 506.75 -21.2687)">
</image>
<rect x="69.8" y="69.8" class="st2" width="260.5" height="260.5"/>
<rect x="160.5" y="160.5" class="st1" width="79" height="79"/>
</svg>
