<?xml version="1.0" encoding="utf-8"?>
<!-- Generator: Adobe Illustrator 25.2.3, SVG Export Plug-In . SVG Version: 6.00 Build 0)  -->
<!DOCTYPE svg PUBLIC "-//W3C//DTD SVG 1.1//EN" "http://www.w3.org/Graphics/SVG/1.1/DTD/svg11.dtd" [
	<!ENTITY ns_extend "http://ns.adobe.com/Extensibility/1.0/">
	<!ENTITY ns_ai "http://ns.adobe.com/AdobeIllustrator/10.0/">
	<!ENTITY ns_graphs "http://ns.adobe.com/Graphs/1.0/">
	<!ENTITY ns_vars "http://ns.adobe.com/Variables/1.0/">
	<!ENTITY ns_imrep "http://ns.adobe.com/ImageReplacement/1.0/">
	<!ENTITY ns_sfw "http://ns.adobe.com/SaveForWeb/1.0/">
	<!ENTITY ns_custom "http://ns.adobe.com/GenericCustomNamespace/1.0/">
	<!ENTITY ns_adobe_xpath "http://ns.adobe.com/XPath/1.0/">
]>
<svg version="1.1" id="Layer_1" xmlns:x="&ns_extend;" xmlns:i="&ns_ai;" xmlns:graph="&ns_graphs;"
	 xmlns="http://www.w3.org/2000/svg" xmlns:xlink="http://www.w3.org/1999/xlink" x="0px" y="0px" viewBox="0 0 400 400"
	 style="enable-background:new 0 0 400 400;" xml:space="preserve">
<style type="text/css">
	.st0{fill:#EF3E23;}
	.st1{fill:#FFFFFF;}
</style>
<metadata>
	<sfw  xmlns="&ns_sfw;">
		<slices></slices>
		<sliceSourceBounds  bottomLeftOrigin="true" height="400" width="400" x="0" y="-400"></sliceSourceBounds>
	</sfw>
</metadata>
<rect x="0" y="0" class="st0" width="400" height="400"/>
<path class="st1" d="M225.2,109.7c0.1,2.5,0.2,4.3,0.4,6.8c-6.4,2.5-12.9,0.7-19.9,1.2c0-3,0-5.2,0-8
	C211.8,109.7,217.9,109.7,225.2,109.7z"/>
<path class="st1" d="M158,67.5c0.2,2.5,0.4,4.3,0.7,6.8c-3,2.5-6.4,0.7-9.8,1.2c-0.2-3-0.4-5.2-0.6-8
	C151.3,67.5,154.3,67.5,158,67.5z"/>
<path class="st1" d="M235.4,109.7c2.5,0.4,4.4,0.6,6.9,1c4.1,11,3.7,21.2,5.8,32.7c-3.1-0.7-5.3-1.2-8.3-1.8
	C238.4,131.6,237.1,121.8,235.4,109.7z"/>
<path class="st1" d="M200.1,131.1c15.2,0.1,26.4,0.2,41.4,0.4c1.7,8.1,1.4,6.3,2.6,11.1c-18.2-0.2-25,0.2-42.4,0
	C201.2,139,200.7,135.4,200.1,131.1z"/>
<path class="st1" d="M181.5,92.4c-2.5-0.3-4.4-0.5-6.9-0.7c-3.7-8.5-3-16.3-4.8-25.2c3.1,0.5,5.3,0.9,8.2,1.4
	C179.1,75.5,180.2,83.1,181.5,92.4z"/>
<path class="st1" d="M189.9,143.1c-3.3-0.5-5.7-1-9-1.5c-3.8-8.8-1.8-16.3-3-25.2c3.9,0.9,6.8,1.5,10.6,2.3
	C189,126.3,189.4,133.9,189.9,143.1z"/>
<g>
	<path class="st1" d="M213.4,211.2c0.1,0,0.2,0,0.4,0c0-0.1,0-0.2,0-0.4L213.4,211.2z"/>
	<path class="st1" d="M341.1,292.2c-7.9,0-14.9,0-22.4,0c0-4.2,0-7.5,0-10.8c-3.8-0.1-7.6-0.2-11.4-0.3c-0.1-3.8-0.2-7.6-0.3-11.4
		c-3.2,0-6.5,0-10.7,0c-0.3-3.7-0.6-7.2-0.9-11.4c4.4-0.2,8-0.4,11.6-0.6c0-3.8,0-7.6,0-11.4c-3.6-0.2-7.2-0.4-11.1-0.6
		c0-7.8,0-14.9,0-22.2c4-0.6,7.6-1.1,11.1-1.7c0-8,0-15.1,0-22.3c-3.8-0.1-7.6-0.2-11.4-0.3c-0.2-2.7-0.4-5.3-0.6-8
		c-4.1-0.5-7.3-0.9-10.8-1.3c0-3.7,0-6.9,0-11c7.6,0,14.7,0,22.9,0c-0.3-4.5-0.5-8-0.8-12.4c-8,0-15.1,0-23,0c0-8-0.5-7.4-0.5-14.5
		c-4.1,0-5.9,0.7-9.9,0.7c0,7.7-0.9,6.4-0.9,14.4c-4.5-0.4-8-0.6-12.4-1c0-8.1,1.1-4.2,1.1-11.4c-4.3,0-4.2,2.1-7.6,2.1l-3.2-2.5
		c-0.2,3.7-1.5-3.6-1.7,0.5c-4.1,0.2-7.6,0.4-11.1,0.6c0,3.3,0,6.5,0,10.6c-3.8,0.6-7.4,1.1-11.4,1.7c0,3.5,0,6.7,0,10.3
		c3.6,0.4,6.8,0.7,10.7,1.1c0.2,3.8,0.4,7.4,0.6,11c3.2,0,6.5,0,10.5,0c0.4,2.7,0.7,5.2,1.2,8.5c-4.5,0.2-8.1,0.4-11.7,0.6
		c-0.2,3.6-0.4,7.2-0.6,11.7c-8,0-15.4,0-22.8,0c0,3.3,0,6.5,0,10.6c3.6,0.5,7.2,1,11.1,1.5c0,3.6,0,6.8,0,11.2c-0.2,0-0.4,0-0.6,0
		l1.3,23c3.2,0,6.5,0,10.4,0c1.3,4.7,1.3,9.3,1.2,14.1h11.6c-0.4-8.2,0.3-16.5-0.1-25.1c11.9,0,22.8,0,34.5,0c0,11,0,21.9,0,34.3
		c-9.8,0-19.1,0-28.9,0l0,0l-2.4,0c-2.1,0.1,2.4,0-2.1,0h-13.5l0-0.1c-3.9,0.2-7.4,0.4-10.8,0.6c0,3.6,0,7.2,0,10.9
		c4.4,0.5,7.6,0.9,11.1,1.3c0.4,3.7,0.7,6.9,1,10.6c3.7,0,6.9,0,10.3,0c0.6-4,1.2-7.6,1.8-11.5c4,0.4,7.3,0.6,10.3,0.9
		c0.4,4.2,0.7,7.4,1,10.3c4.1,0,7.3,0,10.5,0c0.5-3.9,0.9-7.1,1.3-10.5c3.8,0,7,0,10.6,0c0.3,3.7,0.7,6.9,1,10.4
		c4,0.6,7.6,1.2,11.5,1.8c-0.4,4-0.6,7.3-1,11.3c-8,0-15.1,0-22,0c0,8,0,15.1,0,22.3c23.3,0,45.9,0,69.5,0c0-8.2,0.2-15.9,0-23.5
		C342,308.2,343.2,300.5,341.1,292.2z M248,233.9c-2.8,0.2-6,0.5-10.1,0.9c0-4.2,0-8.1,0-11.7c3.8,0,6.6,0,10.1,0
		C248,226.5,248,229.7,248,233.9z M260.6,179.6c3.5-0.2,7-0.5,11-0.7c0,4.1,0,7.3,0,11.1c-3.4,0-6.6,0-11,0
		C260.6,186.2,260.6,183.4,260.6,179.6z M271.1,234.2c-3.8,0-6.6,0-10.1,0c0-3.5,0-6.6,0-10.8c2.8-0.2,6-0.5,10.1-0.9
		C271.1,226.7,271.1,230.5,271.1,234.2z M260.7,210.1c0-3.8,0-6.6,0-10.1c3.5,0,6.7,0,10.8,0c0.2,2.8,0.5,6,0.9,10.1
		C268.1,210.1,264.3,210.1,260.7,210.1z M284.3,211c0-4.1,0-7.3,0-11.5c3.9,0,7.5,0,11.1,0c0,3.3,0,6.6,0,10.8
		C291.9,210.5,288.4,210.8,284.3,211z M296,293c0-4.1,0-7.3,0-11.5c3.9,0,7.5,0,11.1,0c0,3.3,0,6.6,0,10.8
		C303.6,292.4,300.1,292.7,296,293z M330.1,327.5c-7.3,0-14.4,0-22.7,0c0-3.8,0-6.6,0-10.5c3.3-0.3,6.5-0.6,10.6-1.1
		c0.5-3.3,1-6.9,1.6-10.9c3.6,0,6.8,0,10.5,0C330.1,312.7,330.1,319.7,330.1,327.5z"/>
	<path class="st1" d="M225.1,281.5c0.1,0,0.2,0,0.3,0c0-0.1,0-0.2,0-0.3L225.1,281.5z"/>
	<path class="st1" d="M157.8,234.6c0.1,0,0.2,0,0.3,0c0-0.1,0-0.2,0-0.3L157.8,234.6z"/>
	<path class="st1" d="M158.1,234.6c0,3.8,0,7.6,0,11.3c3.3,0,6.6,0,10.7,0c0.6,3.9,1.1,7.5,1.6,11.4c7.1,0,13.9,0,21.6,0
		c0.5-3.1,1.2-6.7,1.9-10.7c7.2,0,14.4,0,21.8,0l-0.7-12C195.9,234.6,177,234.6,158.1,234.6z"/>
	<path class="st1" d="M158.1,246.3c0-0.1,0-0.2,0-0.3c-0.1,0-0.2,0-0.3,0L158.1,246.3z"/>
	<path class="st1" d="M236.8,199.5c0.1,0,0.2,0,0.3,0c0-0.1,0-0.2,0-0.3L236.8,199.5z"/>
	<path class="st1" d="M307,269.4c0,0.1,0,0.2,0,0.4c0.1,0,0.2,0,0.3,0L307,269.4z"/>
	<path class="st1" d="M307.4,257.7c-0.1,0-0.2,0-0.3,0c0,0.1,0,0.2,0,0.3L307.4,257.7z"/>
	<path class="st1" d="M318.7,281.1c0,0.1,0,0.2,0,0.3c0.1,0,0.2,0,0.3,0L318.7,281.1z"/>
	<path class="st1" d="M237.2,190.8c0-0.1,0-0.2,0-0.4c-0.1,0-0.2,0-0.3,0L237.2,190.8z"/>
	<path class="st1" d="M236.8,155.6c0.1,0,0.2,0,0.4,0c0-0.1,0-0.2,0-0.3L236.8,155.6z"/>
	<path class="st1" d="M307,199.2c0,0.1,0,0.2,0,0.4c0.1,0,0.2,0,0.4,0L307,199.2z"/>
	<path class="st1" d="M307,246c0,0.1,0,0.2,0,0.3c0.1,0,0.2,0,0.4,0L307,246z"/>
	<path class="st1" d="M341.7,53.5c-27.1,0-53.7,0-80.7,0c0,26,0,51.6,0,77.8c27.7,0,54.2,0,80.7,0C341.7,105,341.7,79.5,341.7,53.5z
		 M330.6,90.4c0.1,9.6,0,19.3,0,29.4c-19.6,0-38.4,0-57.9,0c0-18.8,0-37.6,0-57.7c19.1,0,37.5,0,57.3,0
		C331.3,71.3,330.5,80.9,330.6,90.4z"/>
	<path class="st1" d="M56.2,338.8c23.7,2,68.2,1.5,78.1-0.9c0-26.2,0-52.4,0-79.3c-26.9,0-52.5,0-78.1,0
		C56.2,285.8,56.2,312.3,56.2,338.8z M65,269.8c19.1,0,37.5,0,57.3,0c1.3,9.2,0.4,18.8,0.6,28.3c0.1,9.6,0,19.3,0,29.4
		c-19.6,0-38.4,0-57.9,0C65,308.7,65,290,65,269.8z"/>
	<path class="st1" d="M134.1,53.6c-26,0-51.6,0-77.8,0c0,26.7,0,52.3,0,77.8c26.3,0,51.9,0,77.8,0
		C134.1,105.3,134.1,79.7,134.1,53.6z M121,120.1c-18.5,0-36.9,0-56,0c0-19.1,0-37.8,0-57.6c18.4-1.4,37.2-0.2,55.9-0.7
		C123.7,72.9,123.7,109.6,121,120.1z"/>
	<path class="st1" d="M202,316.5c0-0.1,0-0.2,0-0.3c-0.1,0-0.2,0-0.3,0L202,316.5z"/>
	<path class="st1" d="M146.8,339.7c4.1-0.3,7.6-0.6,12-0.9c0-4.7,0-9,0-13.1l-12,0.7C146.8,330.8,146.8,335.2,146.8,339.7z"/>
	<path class="st1" d="M225.1,316.5l0.3-0.3c-0.1,0-0.2,0-0.3,0C225.1,316.3,225.1,316.4,225.1,316.5z"/>
	<path class="st1" d="M213.4,281.1c0,0.1,0,0.2,0,0.3c0.1,0,0.2,0,0.3,0L213.4,281.1z"/>
	<path class="st1" d="M157.8,269.8c0.1,0,0.2,0,0.3,0c0-0.1,0-0.2,0-0.3L157.8,269.8z"/>
	<path class="st1" d="M213.4,303.5c0-7.9,0-15,0-22.1c-6.1,0-12.3,0-19.3,0c-0.6-3.7-1.2-7.3-1.9-11.7c-11.4,0-22.8,0-34.1,0
		c-0.2,3.6-0.3,7.3-0.5,11c-4.1,0.5-7.3,0.8-10.8,1.2c0,11.8,0,23.4,0,35.2l20.2-1.2c1-0.1,2.1-0.2,3.2-0.3c0-8,0-15.1,0-22
		c4.1,0,7.3,0,10.7,0c0.4,3.8,0.7,7,1.1,10.6c3.7,0,6.9,0,10.3,0c0.7-4,1.3-7.6,1.9-11.5c3.1,0.5,5.3,0.9,7.8,1.3
		c0,7.9,0,15.1,0,22.3c7.7,0,15.4,0,23.1,0c0-3.6,0-7.2,0-10.5C220.5,304.8,217,304.2,213.4,303.5z"/>
	<path class="st1" d="M202.6,84.9c-0.5-3.9-1-7.5-1.5-11.5c-3.1,0.3-5.3,0.5-7.2,0.7c0,8.1,0,15.1,0,22.2c10.7,0,20.7,0,30.9,0
		c0.4-3.8,0.8-7,1.2-11.1c7.5,0,14.6,0,22.2,0c0-4.1,0-7.3,0-10.9c-3.8-0.5-7.4-1.1-11.3-1.6c0-4.1,0-7.4,0-10.6
		c-3.6,0-7.2,0-10.9,0c-0.5,4.4-0.9,7.6-1.3,11.1c-3.7,0.4-6.9,0.7-10.2,1c-0.7,4-1.3,7.6-1.8,10.8
		C208.8,84.9,205.9,84.9,202.6,84.9z"/>
	<path class="st1" d="M236.8,61.7c0,0.1,0,0.2,0,0.4c0.1,0,0.2,0,0.4,0L236.8,61.7z"/>
	<path class="st1" d="M99.6,211.2c0-0.1,0-0.2,0-0.3c-0.1,0-0.2,0-0.3,0L99.6,211.2z"/>
	<path class="st1" d="M111.4,222.9c0-0.1,0-0.2,0-0.4c-0.1,0-0.2,0-0.3,0L111.4,222.9z"/>
	<path class="st1" d="M134.4,210.9c0,0.1,0,0.2,0,0.4c0.1,0,0.2,0,0.4,0L134.4,210.9z"/>
	<path class="st1" d="M134.4,190.8c0.1,0,0.2,0,0.4,0c0-0.1,0-0.2,0-0.4c-0.1,0-0.2,0-0.3,0C134.4,190.5,134.4,190.6,134.4,190.8z"
		/>
	<path class="st1" d="M134.8,222.6c-0.1,0-0.2,0-0.4,0c0,0.1,0,0.2,0,0.4L134.8,222.6z"/>
	<path class="st1" d="M134.8,199.2c-0.1,0-0.2,0-0.4,0c0,0.1,0,0.2,0,0.3L134.8,199.2z"/>
	<path class="st1" d="M111.6,190.8c-0.2-4.5-0.4-8.2-0.6-11.7c-3.8,0-7.6,0-11.4,0c0,10.6,0,21.2,0,31.8c3.5,0.2,7.1,0.4,11.2,0.6
		c0.2,4.1,0.4,7.6,0.6,11.1c7.7,0,15.4,0,23.1,0c0-3.8,0-7.6,0-11.3c-3.2,0-6.5,0-10.6,0c-0.3-3.7-0.6-7.2-0.9-11.4
		c4.4-0.2,8-0.4,11.6-0.6c0-2.8,0-5.6,0-8.4C127,190.8,119.6,190.8,111.6,190.8z"/>
	<path class="st1" d="M169.9,120.2c-0.1,0-0.2,0-0.3,0c0,0.1,0,0.2,0,0.3L169.9,120.2z"/>
	<path class="st1" d="M158.1,131.9c-0.1,0-0.2,0-0.3,0c0,0.1,0,0.2,0,0.3L158.1,131.9z"/>
	<path class="st1" d="M145.9,109.9c1.3,7.8-0.8,15.1,1.5,22c3.9,0,7.2,0,10.5,0c0.2-3.5,0.4-7.1,0.6-11.2c4.1-0.2,7.6-0.4,11.2-0.6
		c0-7.5,0-15,0-22.7c4.5-0.4,7.7-0.7,11.8-1.1c-0.3-4-0.6-7.5-0.9-11c-12-0.1-22.9-0.2-33.4,0c0,4.7,0,7.9,0,10.9
		c3.9,0.5,7.1,0.9,10.4,1.2c0,3.9,0,7,0,10.3C153.4,108.6,149.9,109.2,145.9,109.9z"/>
	<path class="st1" d="M134.7,190.4c3.8,0,7.6,0,11.4,0c0-7.5,0-14.9,0-23.2c-12.3,0.4-23.5-0.8-34.8,0.9c0,4.1,0,7.4,0,10.6
		c7.4,0,14.8,0,22.8,0C134.4,183.2,134.6,186.8,134.7,190.4z"/>
	<path class="st1" d="M146.5,190.4c-0.1,0-0.2,0-0.3,0c0,0.1,0,0.2,0,0.3L146.5,190.4z"/>
	<path class="st1" d="M111.3,178.7c-0.1,0-0.2,0-0.3,0c0,0.1,0,0.2,0,0.3c0.1,0,0.2,0,0.3,0C111.3,178.9,111.3,178.8,111.3,178.7z"
		/>
	<path class="st1" d="M181.6,178.7c-0.1,0-0.2,0-0.3,0c0,0.1,0,0.2,0,0.3L181.6,178.7z"/>
	<path class="st1" d="M169.5,155.6c0.1,0,0.2,0,0.3,0c0-0.1,0-0.2,0-0.3L169.5,155.6z"/>
	<path class="st1" d="M181.2,155.3c0,0.1,0,0.2,0,0.4c0.1,0,0.2,0,0.4,0L181.2,155.3z"/>
	<path class="st1" d="M169.8,155.6c0,7.4,0,14.8,0,23.1c4.3,0,7.8,0,11.4,0c0-7.7,0-15.4,0-23.1
		C177.4,155.6,173.6,155.6,169.8,155.6z"/>
	<path class="st1" d="M75.9,167c0,0.1,0,0.2,0,0.4c0.1,0,0.2,0,0.4,0L75.9,167z"/>
	<path class="st1" d="M75.9,177.8c0-3.9,0-7.2,0-10.4c-6.5,0-13,0-19.8,0c0,4.2,0,7.3,0,11.4C63,178.5,69.5,180,75.9,177.8z"/>
	<path class="st1" d="M213.6,60.6c-0.1-2.5-0.2-4.3-0.4-6.8c-7.4,0-13.4,0-19.5,0c0,2.9,0,5,0,8C200.7,61.3,207.2,63.1,213.6,60.6z"
		/>
	<path class="st1" d="M88,167.3c0,3.5,0,7.1,0,11.4c4.3,0,7.8,0,11.3,0c0-3.5,0-7,0-11.4C95,167.3,91.5,167.3,88,167.3z"/>
	<path class="st1" d="M87.6,167.3c0.1,0,0.2,0,0.3,0c0-0.1,0-0.2,0-0.3L87.6,167.3z"/>
	<path class="st1" d="M99.3,178.7c0,0.1,0,0.2,0,0.4c0.1,0,0.2,0,0.4,0c0-0.1,0-0.2,0-0.4C99.5,178.7,99.4,178.7,99.3,178.7z"/>
	<path class="st1" d="M213.5,178.3c-0.3-4.1-0.5-7.5-0.8-11c-4.2,0-7.4,0-10.7,0c0,3.6,0,7.2,0,11
		C206.3,178.3,209.4,178.3,213.5,178.3z"/>
	<path class="st1" d="M201.7,167.3c0.1,0,0.2,0,0.4,0c0-0.1,0-0.2,0-0.4L201.7,167.3z"/>
	<path class="st1" d="M318,73.8c-11.5,0-22.1,0-33.5,0c0,12.2,0,23.2,0,34.3c11.6,0,22.5,0,34.4,0C318.5,96.3,319.8,85,318,73.8z"/>
	<path class="st1" d="M110.2,281.6c-11.5,0-22.1,0-33.4,0c0,12.3,0,23.2,0,34.2c11.6,0,22.5,0,34.4,0
		C110.7,304,112.1,292.7,110.2,281.6z"/>
	<path class="st1" d="M76.8,73.7c0,12.4,0,23.4,0,34.4c11.6,0,22.6,0,33.9,0c0-11.5,0-22.4,0-34.5C98.3,73.7,87.3,73.4,76.8,73.7z"
		/>
</g>
<polygon class="st1" points="201.2,85.3 176.7,85.3 178.3,96.6 202.8,96.6 "/>
<polygon class="st0" points="397.5,227.4 14.7,227.4 2.7,141.5 385.4,141.5 "/>
<g>
	<path class="st1" d="M68.9,203.3H28.3l0.7-6.4h-6.6l2.2-20.5h6.6l0.7-6.8h6.6l0.7-6.8h27.3l-0.7,6.8h6.8L68.9,203.3z M56.9,189.8
		l2.1-20.2H45.2l-0.7,6.8H38l-2.1,20.1h13.7l0.7-6.7H56.9z"/>
	<path class="st1" d="M123.7,183h-6.6l-0.7,6.8h-6.8l-0.7,6.6h13.4l-0.7,6.8h-20.1l0.7-6.5h-6.8l0.8-7h-6.5L88,203.3H74.3l4.3-40.6
		h40.6l-0.7,6.5h6.6L123.7,183z M110.2,183l1.4-13.4H91.5L90.1,183H110.2z"/>
	<path class="st1" d="M205.6,182.9h-6.6l-0.7,6.9h-6.6l-0.7,6.8h-20.3l-0.7,6.8h-13.7l4.3-40.6h40.6l-0.7,6.4h6.6L205.6,182.9z
		 M192,182.9l1.4-13.3h-20.1l-2.1,20.1h13.7l0.7-6.9H192z"/>
	<path class="st1" d="M233.9,203.3H207l0.7-6.8h6.6l2.9-26.9h-6.7l0.7-6.8h26.9l-0.7,6.8h-6.6l-2.9,26.9h6.6L233.9,203.3z"/>
	<path class="st1" d="M289,176.1l-6.7,0.5l-0.6,6.4H275l-0.7,6.8h6.6l-0.7,6.7h6.6l-0.7,6.8h-13.7l0.7-6.4h-6.6l0.8-6.8h-6.7
		l-0.7,6.8h-6.7l-0.7,6.4h-13.6l0.7-6.8h6.6l0.7-6.7h6.8l0.7-6.6h-6.8l0.6-6.6h-6.6l1.5-13.8h13.5l-1.4,13.3h6.7l-0.7,6.8h6.7
		l0.7-6.8h6.6l1.4-13.3h13.7L289,176.1z"/>
	<path class="st1" d="M338.4,203.3h-47.3l4.3-40.6h47.3l-0.7,6.6h-33.7l-1.4,13.4h26.9l-0.7,7h-27l-0.7,6.7h33.7L338.4,203.3z"/>
	<path class="st1" d="M381.1,203.3h-40.5l4.3-40.6h13.3l-3.6,33.6h27.1L381.1,203.3z"/>
</g>
</svg>
